<svg width="90" height="90" viewBox="0 0 90 90" fill="none" xmlns="http://www.w3.org/2000/svg">
<circle cx="45" cy="45" r="45" fill="#91E4FF" fill-opacity="0.3"/>
<path d="M34.5833 26.25H30.4167C29.3116 26.25 28.2518 26.689 27.4704 27.4704C26.689 28.2518 26.25 29.3116 26.25 30.4167V34.5833M55.4167 26.25H59.5833C60.6884 26.25 61.7482 26.689 62.5296 27.4704C63.311 28.2518 63.75 29.3116 63.75 30.4167V34.5833M53.3333 36.6667V40.8333M36.6667 36.6667V40.8333M38.75 53.3333C38.75 53.3333 40.8333 55.4167 45 55.4167C49.1667 55.4167 51.25 53.3333 51.25 53.3333M45 36.6667V47.0833H42.9167M34.5833 63.75H30.4167C29.3116 63.75 28.2518 63.311 27.4704 62.5296C26.689 61.7482 26.25 60.6884 26.25 59.5833V55.4167M55.4167 63.75H59.5833C60.6884 63.75 61.7482 63.311 62.5296 62.5296C63.311 61.7482 63.75 60.6884 63.75 59.5833V55.4167" stroke="#F7FAFE" stroke-width="3" stroke-linecap="round" stroke-linejoin="round"/>
</svg>
